<?xml version="1.0" encoding="utf-8"?>
<!-- Generator: Adobe Illustrator 19.1.0, SVG Export Plug-In . SVG Version: 6.00 Build 0)  -->
<svg version="1.1" id="Capa_1" xmlns="http://www.w3.org/2000/svg" xmlns:xlink="http://www.w3.org/1999/xlink" x="0px" y="0px"
	 viewBox="0 0 152.8 47.4" style="enable-background:new 0 0 152.8 47.4;" xml:space="preserve">
<style type="text/css">
	.st0{fill:none;stroke:#FFFFFB;stroke-width:0.1248;stroke-miterlimit:3.864;}
	.st1{fill:#E0081D;}
</style>
<ellipse class="st0" cx="146.2" cy="41" rx="6.6" ry="6.4"/>
<ellipse class="st0" cx="6.6" cy="6.4" rx="6.6" ry="6.4"/>
<path class="st1" d="M139.6,41c0-3.5,3-6.4,6.6-6.4c3.6,0,6.6,2.9,6.6,6.4c0,3.5-3,6.4-6.6,6.4C142.5,47.4,139.6,44.5,139.6,41"/>
<path class="st1" d="M0,6.4C0,2.9,3,0,6.6,0c3.6,0,6.6,2.9,6.6,6.4c0,3.5-3,6.4-6.6,6.4C3,12.8,0,10,0,6.4"/>
<rect x="140.5" y="1.7" class="st1" width="11.8" height="29.5"/>
<path class="st1" d="M76.6,7.2c1.2,1.5,1.7,4.2,1.7,6.6l-0.1,19.3c-0.2,5-3.1,10.5-7.7,12.2c-4.6,2.1-11.8,1.8-15.8-1.3
	c-3.5-2.6-5.3-6.4-5.5-10.6l0-21.5c0.3-3.1,1.9-6.3,4.5-7.8c1.9-1.2,4-2,6.2-2.1C64.7,1.6,73.1,1.5,76.6,7.2 M65.4,12.5
	c-0.7-0.6-1.7-0.7-2.5-0.4c-0.8,0.3-1.3,1-1.4,1.8l0,19c0.1,0.8,0.7,1.5,1.5,1.7c0.6,0.2,1.3,0.1,1.8,0c0.6-0.4,1.2-0.7,1.2-1.9
	l0-18.7C66,13.3,65.7,12.9,65.4,12.5"/>
<path class="st1" d="M130.4,1.9c0.3,0.1,7.1,44.3,7.1,44.5c-0.1,0-11.2,0-11.2,0c0,0-1.2-6.6-1.2-6.6c0,0-8.5,0-8.5,0
	c0,0-1.3,6.6-1.3,6.6c-0.1,0-11.5,0-11.5,0c0,0,8.5-44.4,8.4-44.5C112.1,2,130.4,1.9,130.4,1.9 M123.2,30.1c0,0-2.5-12.7-2.5-12.8
	c0,0,0-0.2-2.6,12.8C118,30.1,123.2,30.1,123.2,30.1"/>
<path class="st1" d="M94.8,34.8h7.2l0,11.6c0,0-19.3,0-19.3,0l0-44.5h12C94.8,1.9,94.8,34.9,94.8,34.8"/>
<polygon class="st1" points="28.6,17.8 33.3,17.8 33.3,2 45,2 45,46.4 33.4,46.4 33.4,29 28.7,29 28.7,46.4 16.7,46.4 16.7,2 
	28.6,2 "/>
<polygon class="st1" points="12.8,46.4 1.1,46.4 1.1,14.3 12.8,14.3 "/>
</svg>
