<?xml version="1.0" encoding="UTF-8"?>
<svg width="125px" height="21px" viewBox="0 0 125 21" version="1.1" xmlns="http://www.w3.org/2000/svg" xmlns:xlink="http://www.w3.org/1999/xlink">
    <!-- Generator: Sketch 42 (36781) - http://www.bohemiancoding.com/sketch -->
    <title>muno</title>
    <desc>Created with Sketch.</desc>
    <defs></defs>
    <g id="Page-1" stroke="none" stroke-width="1" fill="none" fill-rule="evenodd">
        <g id="muno" fill-rule="nonzero" fill="#03CCBA">
            <g id="logo">
                <g id="00.2">
                    <g id="1">
                        <path d="M114.791667,0 C120.420651,0 125,4.4860714 125,10 C125,15.5139286 120.420651,20 114.791667,20 L100.208333,20 C94.579349,20 90,15.5139286 90,10 C90,4.4860714 94.579349,0 100.208333,0 L114.791667,0 Z M100.078125,14.2857143 L114.921875,14.2857143 C117.377217,14.2857143 119.375,12.3632143 119.375,10 C119.375,7.6367857 117.377217,5.7142857 114.921875,5.7142857 L100.078125,5.7142857 C97.622783,5.7142857 95.625,7.6367857 95.625,10 C95.625,12.3632143 97.622783,14.2857143 100.078125,14.2857143 Z M59.6428571,0.2500153 C59.84,0.2500153 60,0.4100153 60,0.6071581 L60,10.2500153 C60,15.7641224 55.5141071,20.2500153 50,20.2500153 C44.4858929,20.2500153 40,15.7641224 40,10.2500153 L40,0.6071581 C40,0.4100153 40.16,0.2500153 40.3571429,0.2500153 L45.3571429,0.2500153 C45.5542857,0.2500153 45.7142857,0.4100153 45.7142857,0.6071581 L45.7142857,10.2500153 C45.7142857,12.6132295 47.6369643,14.5357295 50,14.5357295 C52.3630357,14.5357295 54.2857143,12.6132295 54.2857143,10.2500153 L54.2857143,0.6071581 C54.2857143,0.4100153 54.4457143,0.2500153 54.6428571,0.2500153 L59.6428571,0.2500153 Z M24.7916667,0 C30.420651,0 35,4.4860714 35,10 L35,19.6428571 C35,19.8401786 34.8366667,20 34.6354167,20 L29.53125,20 C29.33,20 29.1666667,19.8401786 29.1666667,19.6428571 L29.1666667,10 C29.1666667,7.6367857 27.2039323,5.7142857 24.7916667,5.7142857 C22.379401,5.7142857 20.4166667,7.6367857 20.4166667,10 L20.4166667,19.6428571 C20.4166667,19.8401786 20.2533333,20 20.0520833,20 L14.9479167,20 C14.7466667,20 14.5833333,19.8401786 14.5833333,19.6428571 L14.5833333,10 C14.5833333,7.6367857 12.620599,5.7142857 10.2083333,5.7142857 C7.7960677,5.7142857 5.8333333,7.6367857 5.8333333,10 L5.8333333,19.6428571 C5.8333333,19.8401786 5.67,20 5.46875,20 L0.3645833,20 C0.1633333,20 0,19.8401786 0,19.6428571 L0,10 C0,4.4860714 4.579349,0 10.2083333,0 C13.0626563,0 15.6457292,1.1548214 17.5,3.0108929 C19.3542708,1.1548214 21.9373437,0 24.7916667,0 Z M75,0 C80.514107,0 85,4.4860714 85,10 L85,19.6428571 C85,19.8401786 84.84,20 84.642857,20 L79.642857,20 C79.445714,20 79.285714,19.8401786 79.285714,19.6428571 L79.285714,10 C79.285714,7.6367857 77.363036,5.7142857 75,5.7142857 C72.636964,5.7142857 70.714286,7.6367857 70.714286,10 L70.714286,19.6428571 C70.714286,19.8401786 70.554286,20 70.357143,20 L65.357143,20 C65.16,20 65,19.8401786 65,19.6428571 L65,10 C65,4.4860714 69.485893,0 75,0 Z" id="Muno_100x16-Copy"></path>
                    </g>
                </g>
            </g>
        </g>
    </g>
</svg>