<?xml version="1.0" encoding="UTF-8"?>
<svg width="50px" height="50px" viewBox="0 0 50 50" version="1.1" xmlns="http://www.w3.org/2000/svg" xmlns:xlink="http://www.w3.org/1999/xlink">
    <!-- Generator: Sketch 42 (36781) - http://www.bohemiancoding.com/sketch -->
    <title>Shape</title>
    <desc>Created with Sketch.</desc>
    <defs></defs>
    <g id="Page-1" stroke="none" stroke-width="1" fill="none" fill-rule="evenodd">
        <g id="stampery" fill-rule="nonzero" fill="#2973BA">
            <g id="Page-1">
                <g id="stampery">
                    <g id="Box-1">
                        <g id="LogoStamperyFooter-+-Shape">
                            <path d="M25.000005,0 C23.9015584,0 22.8056222,0.334685683 21.8742754,0.989729599 L19.2363764,2.83027938 C18.3236992,3.47191365 17.2234672,3.82353783 16.092579,3.82000898 L12.8403748,3.8026453 C10.5321736,3.79457744 8.48724769,5.23290611 7.78139044,7.34483544 L6.78766138,10.3140242 C6.4416997,11.3486655 5.75355873,12.2480612 4.83633885,12.8838485 L2.19843988,14.7243982 C0.326458766,16.0222862 -0.455398358,18.3295549 0.265185158,20.437048 L1.27698202,23.4062368 C1.63005796,24.4385588 1.63005796,25.5687309 1.27698202,26.6011534 L0.265185158,29.5703422 C-0.455407782,31.6777348 0.326651817,33.9853052 2.19843988,35.282992 L4.83633885,37.1235418 C5.75345697,37.7594297 6.4418824,38.6588259 6.78766138,39.693366 L7.78139044,42.6625548 C8.4873402,44.7744841 10.5321736,46.2123066 12.8403748,46.204745 L16.092579,46.1873813 C17.2234672,46.1833251 18.3235974,46.5353755 19.2363764,47.1771109 L21.8742754,49.0176607 C23.737079,50.3274464 26.262931,50.3274464 28.1257346,49.0176607 L30.7636335,47.1771109 C31.676309,46.5353755 32.7765421,46.1837513 33.9074309,46.1873813 L37.1596351,46.204745 C39.4678358,46.2128128 41.5126703,44.7744841 42.2186195,42.6625548 L43.2123485,39.693366 C43.5581986,38.6588259 44.2465634,37.7594297 45.1636711,37.1235418 L47.80157,35.282992 C49.6734492,33.9853052 50.4554184,31.6777348 49.7348248,29.5703422 L48.7230279,26.6011534 C48.3699617,25.5688314 48.3699617,24.43876 48.7230279,23.4062368 L49.7348248,20.437048 C50.4554288,18.3295549 49.6733572,16.0222867 47.80157,14.7243982 L45.1636711,12.8838485 C44.2465634,12.2479606 43.5580969,11.3486655 43.2123485,10.3140242 L42.2186195,7.34483544 C41.5126703,5.23290611 39.4678358,3.79518475 37.1596351,3.8026453 L33.9074309,3.82000898 C32.7765421,3.82406513 31.6764108,3.47191365 30.7636335,2.83027938 L28.1257346,0.989729599 C27.1943784,0.334685683 26.0984533,0 25.000005,0 L25.000005,0 Z M25,7.29166667 C34.7642504,7.29166667 42.7083333,15.2356571 42.7083333,25 C42.7083333,34.7643429 34.7642504,42.7083333 25,42.7083333 C15.2357508,42.7083333 7.29166667,34.7643429 7.29166667,25 C7.29166667,15.2356571 15.2357508,7.29166667 25,7.29166667 L25,7.29166667 Z M10.4166667,25 C10.4166667,16.9426121 16.9423782,10.4166667 25,10.4166667 C33.0577131,10.4166667 39.5833333,16.9426121 39.5833333,25 C39.5833333,33.0574918 33.0577131,39.5833333 25,39.5833333 C16.9423782,39.5833333 10.4166667,33.0574918 10.4166667,25 Z M27.5577673,18.9756471 L27.5577673,20.7637943 C27.7248051,20.8489441 27.9475224,20.9199023 28.2259187,20.9766689 C28.504315,21.0334356 28.747912,21.0618188 28.9567094,21.0618188 C28.9984688,20.8489441 29.0402283,20.6076863 29.0819878,20.338045 C29.1237472,20.0684036 29.1550668,19.7916666 29.1759465,19.5078338 C29.1968263,19.224001 29.214226,18.9437159 29.2281459,18.6669789 C29.2420658,18.3902418 29.2490256,18.1383403 29.2490256,17.9112738 C28.678313,17.6842074 28.0449609,17.506812 27.3489699,17.3790872 C26.6529789,17.2513624 25.9987471,17.1875 25.3862751,17.1875 C24.6763641,17.1875 24.0395323,17.2797456 23.4757795,17.4642371 C22.9120267,17.6487285 22.4317929,17.9077258 22.035078,18.2412296 C21.638363,18.5747333 21.3356069,18.9756471 21.1268096,19.4439714 C20.9180122,19.9122956 20.8136136,20.4302905 20.8136136,20.9979564 C20.8136136,21.8778382 20.9841315,22.5909683 21.325167,23.1373467 C21.6662026,23.6837251 22.0942371,24.1343096 22.6092706,24.4891008 C23.1243041,24.843892 23.6810968,25.1419165 24.2796492,25.3831744 C24.8782017,25.6244322 25.4349943,25.8869779 25.9500278,26.1708106 C26.4650614,26.4546434 26.8930959,26.7916952 27.2341314,27.1819653 C27.5751669,27.5722354 27.7456849,28.0937783 27.7456849,28.746594 C27.7456849,29.5980926 27.5020879,30.2615521 27.0148942,30.7369721 C26.5277006,31.212392 25.78299,31.4501022 24.7807628,31.4501022 C24.3214087,31.4501022 23.8516147,31.3968835 23.3713808,31.2904462 C22.891147,31.1840089 22.4631125,31.0243529 22.0872773,30.8114782 L22.0872773,28.6401567 C21.9898384,28.6117735 21.8715202,28.58339 21.7323218,28.5550068 C21.5931235,28.5266236 21.4504454,28.5017881 21.3042873,28.4805007 C21.1581292,28.4592132 21.0189309,28.4450215 20.8866927,28.4379257 C20.7544544,28.43083 20.6396159,28.427282 20.5421771,28.427282 C20.5004176,28.6685399 20.4656179,28.9417292 20.4377784,29.2468495 C20.4099389,29.5519697 20.3855791,29.864186 20.3646993,30.183498 C20.3438196,30.5028099 20.3298997,30.8185739 20.3229399,31.1307902 C20.3159801,31.4430065 20.3125,31.733935 20.3125,32.0035763 C20.8832126,32.2448341 21.5339644,32.4399693 22.264755,32.5889816 C22.9955457,32.7379939 23.7298164,32.8125 24.4675668,32.8125 C25.1496382,32.8125 25.8038697,32.7379939 26.4302617,32.5889816 C27.0566537,32.4399693 27.6099666,32.1916155 28.0902004,31.8439203 C28.5704343,31.4962251 28.9567094,31.0420923 29.2490256,30.4815225 C29.5413419,29.9209527 29.6875,29.222014 29.6875,28.3847071 C29.6875,27.5332084 29.5169821,26.8378178 29.1759465,26.2985354 C28.834911,25.7592531 28.4103562,25.3051202 27.9022829,24.9361376 C27.3942095,24.567155 26.8408965,24.2549387 26.2423441,23.9994891 C25.6437917,23.7440395 25.0904787,23.4743982 24.5824053,23.1905654 C24.074332,22.9067326 23.6497772,22.5732289 23.3087416,22.1900545 C22.9677061,21.8068801 22.7971882,21.3030766 22.7971882,20.6786444 C22.7971882,20.0684036 23.0442649,19.5539567 23.5384187,19.1353031 C24.0325725,18.7166495 24.7181236,18.5073229 25.5950724,18.5073229 C25.9569876,18.5073229 26.3119431,18.5463498 26.6599388,18.624404 C27.0079344,18.7024581 27.3072105,18.8195392 27.5577673,18.9756471 Z" id="Shape"></path>
                        </g>
                    </g>
                </g>
            </g>
        </g>
    </g>
</svg>