<?xml version="1.0" encoding="UTF-8"?>
<svg width="209px" height="50px" viewBox="0 0 209 50" version="1.1" xmlns="http://www.w3.org/2000/svg" xmlns:xlink="http://www.w3.org/1999/xlink">
    <!-- Generator: Sketch 42 (36781) - http://www.bohemiancoding.com/sketch -->
    <title>LogoStamperyFooter-+-Shape</title>
    <desc>Created with Sketch.</desc>
    <defs></defs>
    <g id="Page-1" stroke="none" stroke-width="1" fill="none" fill-rule="evenodd">
        <g id="stampery" transform="translate(-120.000000, -73.000000)" fill-rule="nonzero">
            <g id="Box-1">
                <g id="LogoStamperyFooter-+-Shape" transform="translate(120.000000, 73.000000)">
                    <g id="LogoStamperyFooter" transform="translate(65.000000, 13.000000)" fill="#2A74BA">
                        <g id="Wordmark">
                            <path d="M8.66806068,6.67976424 L8.66806068,8.74044968 C8.9734397,8.92672616 9.3434179,9.06061285 9.77799528,9.14210871 C10.2125727,9.22360457 10.6295326,9.26435276 11.028874,9.26435276 C11.1463272,8.86851506 11.2402901,8.42028651 11.3107621,7.91966819 C11.3812342,7.41904988 11.4164702,6.92425235 11.4164702,6.43527614 L11.4164702,5.87644619 C11.4164702,5.69016972 11.3929793,5.51553536 11.3459981,5.35254311 C10.5473149,5.02655915 9.72514126,4.79371316 8.8794768,4.65400568 C8.03381234,4.51429819 7.19989304,4.44444444 6.37771945,4.44444444 C5.50856413,4.44444444 4.7157537,4.55504638 3.99928816,4.77624973 C3.28282262,4.99745307 2.66619229,5.30015281 2.14939716,5.6843484 C1.63260204,6.06854399 1.23326067,6.52841464 0.951372514,7.06395983 C0.669484362,7.59950503 0.528540286,8.18161973 0.528540286,8.81030343 C0.528540286,9.83482482 0.734083551,10.6730697 1.14517062,11.3250382 C1.55625769,11.9770067 2.06717996,12.5125518 2.67793745,12.9316743 C3.28869493,13.3507968 3.95230698,13.7000655 4.66877252,13.9794805 C5.38523806,14.2588954 6.04885011,14.5557738 6.6596076,14.8701157 C7.27036508,15.1844575 7.78128736,15.5511897 8.19237443,15.9703122 C8.6034615,16.3894346 8.80900476,16.9482646 8.80900476,17.646802 C8.80900476,18.4384779 8.53886177,19.0729824 7.99857632,19.5503165 C7.45829088,20.0276506 6.7418248,20.2663174 5.84917916,20.2663174 C5.30889371,20.2663174 4.78035343,20.1964637 4.2635583,20.0567562 C3.74676318,19.9170487 3.28869493,19.7191296 2.88935356,19.4629993 L2.88935356,17.0530452 C2.51350251,16.9366225 2.09654313,16.8551261 1.63847489,16.8085571 C1.18040664,16.7619881 0.75170156,16.7387033 0.35236019,16.7387033 C0.258397294,17.0646873 0.176180095,17.4488829 0.105708057,17.8912901 C0.035236019,18.3336973 0,18.776104 0,19.2185112 C0,19.4979262 0.0176180095,19.800626 0.0528540286,20.1266099 C0.0880900476,20.4525939 0.129198916,20.7087246 0.176180095,20.8950011 C1.70307407,21.779815 3.50011105,22.2222222 5.56729101,22.2222222 C6.38946461,22.2222222 7.18227504,22.1290837 7.94572229,21.9428072 C8.70916955,21.7565308 9.38452623,21.4654732 9.97179339,21.0696355 C10.5590606,20.6737977 11.028874,20.1557155 11.3812342,19.5153897 C11.7335943,18.8750638 11.9097744,18.1008513 11.9097744,17.1927527 C11.9097744,16.1915155 11.7042312,15.3649132 11.2931441,14.7129448 C10.882057,14.0609763 10.3770076,13.5196098 9.77799528,13.0888452 C9.17898296,12.6580807 8.52124376,12.2913485 7.80477822,11.9886488 C7.08831268,11.685949 6.43057348,11.3774285 5.83156115,11.0630867 C5.23254883,10.7487448 4.7274994,10.387834 4.31641233,9.98035363 C3.90532526,9.57287329 3.699782,9.04314942 3.699782,8.39118096 C3.699782,7.73921251 3.95230698,7.22113076 4.45735641,6.83693517 C4.96240584,6.45273958 5.67299907,6.26064178 6.58913556,6.26064178 C6.98847693,6.26064178 7.37020083,6.30138998 7.73430618,6.38288583 C8.09841153,6.46438169 8.40966339,6.56334152 8.66806068,6.67976424 L8.66806068,6.67976424 Z M17.0846285,0.564373898 L16.4965769,4.44444444 C16.1737252,4.51499118 15.8278125,4.60905368 15.4588388,4.72663139 C15.0898651,4.84420911 14.7670134,4.96178736 14.4902832,5.07936508 C14.3749792,5.31452105 14.2769702,5.61434468 14.1962574,5.97883598 C14.1155446,6.34332728 14.075188,6.65490906 14.075188,6.91358025 L16.4619856,6.91358025 C16.4158641,7.80717207 16.3870377,8.74191634 16.3755075,9.71781305 C16.3639772,10.6937098 16.3466816,11.6402116 16.3236206,12.5573192 C16.3005595,13.4744268 16.2890293,14.3327453 16.2890293,15.1322751 L16.2890293,17.1075838 C16.2890293,18.9417989 16.6234117,20.2527927 17.2921761,21.0405644 C17.9609405,21.8283361 18.9640874,22.2222222 20.3016167,22.2222222 C20.9934421,22.2222222 21.7025631,22.1399179 22.4289798,21.9753086 C23.1553965,21.8106994 23.8645175,21.575544 24.5563429,21.2698413 C24.6485865,21.105232 24.7292993,20.8994709 24.7984818,20.6525573 C24.8676644,20.4056437 24.9022556,20.1528511 24.9022556,19.8941799 L24.9022556,19.6825397 C24.9022556,19.5884772 24.8907254,19.5061728 24.8676644,19.4356261 C24.3372651,19.5767196 23.7895696,19.6884188 23.224579,19.7707231 C22.6595884,19.8530275 22.134954,19.8941799 21.6506762,19.8941799 C20.6821206,19.8941799 20.0652432,19.6355087 19.8000432,19.1181658 C19.5348433,18.6008229 19.4022436,17.7660202 19.4022436,16.6137566 L19.4022436,6.91358025 L24.5217517,6.91358025 C24.5448127,6.6313933 24.5390473,6.266902 24.504456,5.82010582 C24.4698648,5.37330964 24.4410389,5.05584932 24.4179779,4.86772487 L19.4022436,4.86772487 L19.4022436,4.54747351e-13 C19.0563309,4.54747351e-13 18.6470011,0.0587891271 18.1742535,0.176366843 C17.701506,0.293944559 17.3382976,0.423280423 17.0846285,0.564373898 L17.0846285,0.564373898 Z M36.6303679,19.56778 L36.7999193,19.56778 C36.8451328,20.1266099 37.0090328,20.6563343 37.2916183,21.1569526 C37.5742038,21.6575709 37.8850482,22.012661 38.224151,22.2222222 C38.811929,22.2222222 39.4731794,22.1174416 40.2079023,21.9078804 C40.9426252,21.6983191 41.5021448,21.4654732 41.8864611,21.2093429 C42.1125298,20.7436515 42.2255639,20.2197484 42.2255639,19.6376337 C42.2255639,19.4746415 42.2142607,19.3465766 42.1916536,19.2534381 C41.8751579,19.3698608 41.4682345,19.4688207 40.9708836,19.5503165 C40.4735327,19.6318124 40.1005196,19.6725606 39.8518444,19.6725606 C39.7162033,19.5328531 39.6088205,19.2825437 39.5296967,18.9216328 C39.4505729,18.560722 39.4110107,18.205632 39.4110107,17.8563632 L39.4110107,11.0805501 C39.4110107,8.68223805 38.9871323,6.97664265 38.1393753,5.96376337 C37.2916183,4.95088409 35.940859,4.44444444 34.0870969,4.44444444 C33.6349601,4.44444444 33.143261,4.47937132 32.6119998,4.54922506 C32.0807386,4.6190788 31.5607811,4.70639598 31.052127,4.8111766 C30.5434728,4.91595721 30.0687289,5.04402259 29.6278952,5.19537219 C29.1870616,5.34672179 28.8310037,5.50389271 28.5597215,5.66688496 C28.4466874,5.85316143 28.3562598,6.10929218 28.2884392,6.43527614 C28.2206187,6.7612601 28.1867084,7.08724459 28.1867084,7.41322855 C28.1867084,7.64607454 28.1980116,7.86145656 28.2206187,8.05937568 C28.2432257,8.2572948 28.2884392,8.43774995 28.3562598,8.6007422 C28.650149,8.39118096 29.006207,8.18161973 29.4244336,7.9720585 C29.8426602,7.76249727 30.2778424,7.58204159 30.7299793,7.43069199 C31.1821162,7.27934239 31.6342536,7.15127701 32.0863905,7.0464964 C32.5385274,6.94171578 32.9454507,6.88932547 33.3071605,6.88932547 C35.4548114,6.88932547 36.528637,8.19326185 36.528637,10.8011351 L36.528637,12.6871862 C36.0991067,12.5009097 35.6017562,12.3553809 35.0365848,12.2506003 C34.4714133,12.1458197 33.9175455,12.0934294 33.3749811,12.0934294 C32.5385274,12.0934294 31.7359844,12.2098521 30.9673513,12.4426981 C30.1987181,12.6755441 29.5261644,13.0189915 28.9496897,13.4730408 C28.3732149,13.9270902 27.9154261,14.4917414 27.5763234,15.1669941 C27.2372206,15.8422468 27.0676692,16.6339227 27.0676692,17.5420214 C27.0676692,18.3569816 27.2033103,19.055519 27.4745925,19.6376337 C27.7458748,20.2197484 28.1019327,20.7029033 28.5427663,21.0870989 C28.9835999,21.4712945 29.497906,21.7565308 30.085684,21.9428072 C30.673462,22.1290837 31.2725438,22.2222222 31.8829288,22.2222222 C32.9002372,22.2222222 33.8327698,21.9951976 34.6805268,21.5411482 C35.5282838,21.0870989 36.178231,20.4293096 36.6303679,19.56778 L36.6303679,19.56778 Z M36.8120301,14.7089947 L36.8120301,18.3796296 C36.4736842,18.8866841 35.9830827,19.2835095 35.3402256,19.5701058 C34.6973684,19.8567021 34.048872,20 33.3947368,20 C32.5827068,20 31.8665412,19.7905645 31.2462406,19.3716931 C30.62594,18.9528217 30.3157895,18.2804233 30.3157895,17.3544974 C30.3157895,16.472663 30.6710526,15.7671958 31.3815789,15.2380952 C32.0921053,14.7089947 33.1127821,14.4444444 34.443609,14.4444444 C34.7819549,14.4444444 35.1823307,14.4664905 35.6447368,14.510582 C36.107143,14.5546736 36.4962408,14.6208111 36.8120301,14.7089947 L36.8120301,14.7089947 Z M50.0992125,20.0180668 L50.0992125,9.21409214 C50.283721,8.97320066 50.5258885,8.71424288 50.8257152,8.43721771 C51.1255418,8.16019253 51.4599633,7.90725667 51.8289807,7.67841012 C52.1979981,7.44956357 52.5958448,7.26287263 53.0225208,7.11833785 C53.4491968,6.97380307 53.8816388,6.90153568 54.319847,6.90153568 C55.5191531,6.90153568 56.3494418,7.3110507 56.8107132,8.1300813 C57.2719845,8.9491119 57.5026205,10.0572115 57.5026205,11.4543812 L57.5026205,19.9096658 C57.2027938,19.9819332 56.8626062,20.0843118 56.4820572,20.2168022 C56.1015082,20.3492926 55.7843839,20.4757605 55.5306847,20.596206 C55.2769855,21.0779884 55.1155403,21.6199938 55.0463496,22.2222222 L63.0378787,22.2222222 C63.0840057,21.957242 63.0955378,21.6561275 63.0724741,21.3188799 C63.0494103,20.9816322 63.014815,20.704607 62.968688,20.4878049 C62.6457981,20.3673594 62.253717,20.2649802 61.7924456,20.1806685 C61.3311743,20.0963567 60.8814345,20.0301112 60.4432264,19.9819332 L60.4432264,9.21409214 C60.6277348,8.97320066 60.8699024,8.71424288 61.1697291,8.43721771 C61.4695557,8.16019253 61.8039772,7.90725667 62.1729946,7.67841012 C62.542012,7.44956357 62.9398587,7.26287263 63.3665347,7.11833785 C63.7932107,6.97380307 64.2256527,6.90153568 64.6638608,6.90153568 C65.863167,6.90153568 66.6934557,7.3110507 67.1547271,8.1300813 C67.6159984,8.9491119 67.8466343,10.0572115 67.8466343,11.4543812 L67.8466343,19.9096658 C67.5468077,19.9819332 67.2066201,20.0843118 66.8260711,20.2168022 C66.4455221,20.3492926 66.1283977,20.4757605 65.8746986,20.596206 C65.6209994,21.0779884 65.4595542,21.6199938 65.3903635,22.2222222 L73.5894648,22.2222222 C73.6125285,22.1017768 73.6240602,22.0054201 73.6240602,21.9331527 L73.6240602,21.6079494 C73.6240602,21.1502558 73.5894648,20.7768744 73.5202741,20.4878049 C73.1743204,20.3673594 72.7361123,20.2710027 72.2056502,20.1987353 C71.6751881,20.1264679 71.1793209,20.0662449 70.7180496,20.0180668 C70.856431,17.0551039 70.9256217,14.0319179 70.9256217,10.9485095 C70.9256217,9.55133977 70.7872403,8.42517332 70.5104774,7.57000903 C70.2337145,6.71484474 69.8589315,6.05841632 69.386128,5.60072267 C68.9133246,5.14302902 68.3713309,4.83589262 67.7601459,4.67931346 C67.148961,4.5227343 66.5089467,4.44444444 65.8401032,4.44444444 C65.0559415,4.44444444 64.3525026,4.55284553 63.729786,4.7696477 C63.1070694,4.98644986 62.5650752,5.25745257 62.1038039,5.58265583 C61.6425325,5.90785908 61.2562175,6.26317356 60.9448592,6.64859982 C60.6335009,7.03402608 60.408631,7.39536303 60.2702496,7.73261066 L60.0972728,7.73261066 C59.9358276,7.05811484 59.7051921,6.51008751 59.4053655,6.08852755 C59.1055388,5.6669676 58.7538196,5.33574243 58.3502069,5.09485095 C57.9465941,4.85395947 57.5026205,4.68533593 57.0182854,4.58897922 C56.5339503,4.49262252 56.0265514,4.44444444 55.4960893,4.44444444 C54.7349913,4.44444444 54.0488501,4.54682306 53.4376652,4.75158085 C52.8264802,4.95633864 52.2960182,5.21529641 51.8462784,5.52845528 C51.3965387,5.84161416 51.0217557,6.17283932 50.7219291,6.52213189 C50.4221024,6.87142445 50.191467,7.20264962 50.0300218,7.51580849 L49.6840682,7.51580849 L49.6840682,4.87804878 C49.1997331,4.733514 48.6577388,4.66124661 48.058086,4.66124661 C47.527624,4.66124661 47.0086935,4.70942469 46.5012947,4.80578139 C45.9938958,4.90213809 45.5556882,5.02258356 45.1866708,5.16711834 C45.0021624,5.43209858 44.8580149,5.73923499 44.7542288,6.08852755 C44.6504427,6.43782012 44.587018,6.76904528 44.5639543,7.08220416 L47.0894158,7.08220416 L47.0894158,19.9096658 C46.7434622,19.9819332 46.3571471,20.0843118 45.9304711,20.2168022 C45.5037952,20.3492926 45.1520755,20.4757605 44.8753125,20.596206 C44.6216134,21.0779884 44.4601682,21.6199938 44.3909774,22.2222222 L52.6938648,22.2222222 C52.7399918,21.957242 52.751524,21.6561275 52.7284602,21.3188799 C52.7053965,20.9816322 52.6708011,20.704607 52.6246741,20.4878049 C52.3017842,20.3673594 51.9097031,20.2710027 51.4484317,20.1987353 C50.9871604,20.1264679 50.5374207,20.0662449 50.0992125,20.0180668 L50.0992125,20.0180668 Z M80.1203008,19.5126197 L80.1203008,8.79025239 C80.5005107,8.25645507 81.0114174,7.76907473 81.6530214,7.3281114 C82.2946255,6.88714807 83.1382161,6.66666667 84.1837928,6.66666667 C85.5382902,6.66666667 86.6432749,7.22947508 87.4987469,8.35509138 C88.3542189,9.48070768 88.7819549,11.0995066 88.7819549,13.2114883 C88.7819549,15.2306353 88.3185742,16.8668407 87.3918129,18.1201044 C86.4650515,19.3733681 85.0273835,20 83.0788081,20 C82.5322567,20 82.0094681,19.953583 81.5104428,19.8607485 C81.0114174,19.767914 80.5480368,19.6518712 80.1203008,19.5126197 L80.1203008,19.5126197 Z M80.4464172,27.7378208 L80.4464172,21.5875211 C80.8174655,21.846729 81.2928706,22.0529176 81.8726334,22.2060858 C82.4523962,22.359254 82.9973728,22.4358383 83.5075641,22.4358383 C84.7598514,22.4358383 85.9077815,22.211977 86.9513543,21.7642539 C87.9949271,21.3165307 88.893559,20.6744021 89.6472507,19.8378669 C90.4009423,19.0013317 90.9865024,17.9998463 91.4039315,16.8334102 C91.8213606,15.666974 92.0300752,14.376825 92.0300752,12.962963 C92.0300752,11.3605862 91.8329557,10.0174173 91.4387173,8.93345628 C91.0444788,7.84949524 90.5284897,6.97172276 89.890751,6.30013831 C89.2530122,5.62855387 88.5457014,5.15137544 87.7688196,4.86860304 C86.9919379,4.58583064 86.2208533,4.44444444 85.4555666,4.44444444 C84.7134706,4.44444444 84.0757313,4.52102882 83.5423499,4.67419702 C83.0089684,4.82736522 82.5393606,5.02766252 82.1335266,5.27508837 C81.7276925,5.52251422 81.379835,5.81117789 81.0899538,6.14107884 C80.8000726,6.47097979 80.5507745,6.81266329 80.34206,7.16612878 L79.9942024,7.16612878 L79.9942024,4.86860304 C79.5072017,4.72721684 78.9622247,4.65652374 78.3592717,4.65652374 C77.8490804,4.65652374 77.3388896,4.7036523 76.8286983,4.79790994 C76.3185069,4.89216759 75.8662921,5.00998924 75.4720536,5.15137544 C75.2865298,5.41058329 75.1415889,5.71102897 75.0372316,6.05271246 C74.9328744,6.39439596 74.8691006,6.71840564 74.84591,7.02474258 L77.4200562,7.02474258 L77.4200562,27.7378208 C77.0721986,27.8085139 76.6837574,27.9086623 76.2547332,28.0382665 C75.825709,28.1678707 75.4720536,28.2915836 75.1937676,28.4094053 C74.9386722,28.8806924 74.7763384,29.4108907 74.7067669,30 L83.8206359,30 C83.8670168,29.7407921 83.8786124,29.4580197 83.8554217,29.1516828 C83.832231,28.8453459 83.7974452,28.586138 83.7510644,28.3740587 C83.5655405,28.3033656 83.3336353,28.2385638 83.0553492,28.1796527 C82.7770631,28.1207416 82.4813842,28.061831 82.1683123,28.0029199 C81.8552405,27.9440088 81.5479665,27.890989 81.2464897,27.8438605 C80.945013,27.7967319 80.6783225,27.7613854 80.4464172,27.7378208 L80.4464172,27.7378208 Z M98.5343957,13.7349924 L109.248345,13.7349924 C109.318371,13.1063087 109.353383,12.4892671 109.353383,11.8838682 C109.353383,10.789493 109.236674,9.78243452 109.003254,8.86269373 C108.769835,7.94295295 108.413871,7.15709834 107.935361,6.50512988 C107.456851,5.85316143 106.83829,5.34672179 106.079677,4.98581096 C105.321064,4.62490013 104.416564,4.44444444 103.366177,4.44444444 C102.129054,4.44444444 101.014476,4.68311122 100.022444,5.16044532 C99.030412,5.63777941 98.1842666,6.29556865 97.4840085,7.13381358 C96.7837504,7.9720585 96.2410504,8.95001091 95.8559084,10.0676708 C95.4707665,11.1853307 95.2781955,12.3844865 95.2781955,13.6651386 C95.2781955,14.875937 95.45326,15.9994177 95.8033891,17.0355818 C96.1535181,18.0717458 96.6670409,18.9740231 97.3439569,19.7424143 C98.0208729,20.5108055 98.8436762,21.1162044 99.8123667,21.5586117 C100.781057,22.0010189 101.895635,22.2222222 103.156099,22.2222222 C104.25317,22.2222222 105.291886,22.0708726 106.272248,21.7681729 C107.252609,21.4654732 108.057906,21.1394892 108.688138,20.7902205 C108.851532,20.5340903 108.979912,20.202285 109.07328,19.7948046 C109.166648,19.3873243 109.18999,19.055519 109.143306,18.7993888 C108.816519,18.9158115 108.448884,19.0322348 108.0404,19.1486575 C107.631915,19.2650802 107.205925,19.3698608 106.762428,19.4629993 C106.318931,19.5561378 105.88127,19.6318124 105.449445,19.690024 C105.017619,19.7482356 104.61497,19.7773412 104.241499,19.7773412 C102.584222,19.7773412 101.230389,19.241796 100.180002,18.1707051 C99.1296151,17.0996142 98.5810794,15.6210434 98.5343957,13.7349924 L98.5343957,13.7349924 Z M106.053938,12.2222222 L98.5263158,12.2222222 C98.6403705,10.5519245 99.0623739,9.20842411 99.7923251,8.19172113 C100.522276,7.17501816 101.503148,6.66666667 102.734941,6.66666667 C103.442082,6.66666667 104.029464,6.83611735 104.497089,7.17501816 C104.964714,7.51391896 105.323987,7.9557008 105.574908,8.50036311 C105.825829,9.04502542 105.985506,9.64415396 106.053938,10.2977487 C106.122371,10.9513435 106.122371,11.5928348 106.053938,12.2222222 L106.053938,12.2222222 Z M117.049547,8.31074977 L116.710237,8.31074977 L116.710237,4.87804878 C116.235203,4.733514 115.703618,4.66124661 115.115481,4.66124661 C114.617826,4.66124661 114.120172,4.70942469 113.622518,4.80578139 C113.124863,4.90213809 112.683761,5.02258356 112.29921,5.16711834 C112.118245,5.43209858 111.976865,5.73923499 111.875072,6.08852755 C111.773279,6.43782012 111.711073,6.76904528 111.688452,7.08220416 L114.165414,7.08220416 L114.165414,19.9096658 C113.826104,19.9819332 113.447208,20.0843118 113.028726,20.2168022 C112.610244,20.3492926 112.265279,20.4757605 111.993831,20.596206 C111.745004,21.0779884 111.586659,21.6199938 111.518797,22.2222222 L120.544438,22.2222222 C120.589679,21.957242 120.60099,21.6681724 120.578369,21.3550136 C120.555748,21.0418547 120.521817,20.7768744 120.476576,20.5600723 C120.27299,20.4878049 120.029818,20.4155375 119.74706,20.3432701 C119.464302,20.2710027 119.170233,20.2047578 118.864854,20.1445348 C118.559476,20.0843118 118.248441,20.0361337 117.931752,20 C117.615063,19.9638663 117.343616,19.9337551 117.117409,19.9096658 L117.117409,10.2258356 C117.547202,9.19000283 118.107063,8.43721771 118.796992,7.96747967 C119.486922,7.49774164 120.227749,7.26287263 121.019472,7.26287263 C121.426644,7.26287263 121.833815,7.31707317 122.240987,7.42547425 C122.648159,7.53387534 123.010089,7.68443258 123.326778,7.87714544 C123.39464,7.58807588 123.428571,7.26287263 123.428571,6.90153568 C123.428571,6.44384203 123.38333,6.02228263 123.292848,5.63685637 C123.202365,5.25143011 123.100572,4.95031617 122.987469,4.733514 C122.783883,4.6371573 122.5294,4.56488991 122.224022,4.51671183 C121.918643,4.46853376 121.66416,4.44444444 121.460575,4.44444444 C120.352162,4.44444444 119.402095,4.81180386 118.610372,5.54652213 C117.818649,6.28124041 117.298374,7.20264962 117.049547,8.31074977 L117.049547,8.31074977 Z" id="stamper"></path>
                            <path d="M135.949757,19.4560995 L135.711986,19.4560995 C135.666696,19.2416472 135.615745,18.973582 135.559133,18.6519037 C135.502521,18.3302253 135.440248,18.008547 135.372313,17.6868687 C135.304379,17.3651904 135.236444,17.0494692 135.16851,16.7397047 C135.100575,16.4299402 135.03264,16.179746 134.964706,15.989122 L132.824768,9.73426573 C132.643609,9.23387723 132.445466,8.70966053 132.230341,8.16161616 C132.015215,7.6135718 131.80575,7.13701096 131.601946,6.73193473 C131.986908,6.68427887 132.417161,6.62470862 132.892702,6.55322455 C133.368244,6.48174048 133.764529,6.39834258 134.081557,6.3030303 C134.149491,6.04092222 134.211765,5.73711492 134.268377,5.39160839 C134.324989,5.04610186 134.353295,4.73038073 134.353295,4.44444444 L126.676692,4.44444444 C126.699337,4.73038073 126.738965,5.04610186 126.795577,5.39160839 C126.852189,5.73711492 126.925785,6.04092222 127.016364,6.3030303 C127.265458,6.42217024 127.542857,6.53535354 127.848563,6.64257964 C128.154268,6.74980575 128.465635,6.83916084 128.782663,6.91064491 L134.319328,22.1010101 C133.821141,23.2924111 133.056877,24.3527584 132.026537,25.2820513 C130.996197,26.2113442 129.711101,26.9023567 128.171252,27.3550894 C128.216541,27.8793061 128.375055,28.3856512 128.646793,28.8741259 C128.918532,29.3626005 129.178948,29.7378919 129.428041,30 C130.96789,29.4281274 132.298275,28.5822324 133.419195,27.4623155 C134.540115,26.3423985 135.49686,24.9246309 136.289429,23.2090132 C136.606457,22.5418284 136.940469,21.7555036 137.291464,20.8500389 C137.642459,19.9445741 137.987793,19.009324 138.327466,18.044289 C138.667138,17.0792541 138.989828,16.1261329 139.295533,15.1849262 C139.601238,14.2437194 139.878638,13.4037816 140.127731,12.6651127 L142.063866,6.73193473 C142.290314,6.70810653 142.562052,6.66640785 142.87908,6.60683761 C143.196108,6.54726737 143.456524,6.48174048 143.660327,6.41025641 C143.750907,6.14814833 143.830164,5.82051282 143.898098,5.42735043 C143.966033,5.03418803 144,4.70655252 144,4.44444444 L137.512251,4.44444444 C137.512251,5.08780109 137.602831,5.6954157 137.783989,6.26728827 C138.033083,6.3864282 138.355772,6.48174048 138.752057,6.55322455 C139.148342,6.62470862 139.504998,6.68427887 139.822026,6.73193473 C139.708802,6.94638695 139.595577,7.1965812 139.482353,7.48251748 C139.369129,7.76845377 139.255904,8.07226107 139.14268,8.39393939 C139.029456,8.71561772 138.921893,9.03133885 138.819991,9.34110334 C138.718089,9.65086783 138.633171,9.93680412 138.565237,10.1989122 L136.866873,15.8818959 C136.798939,16.0963481 136.719682,16.3644134 136.629102,16.6860917 C136.538523,17.00777 136.453604,17.3354055 136.374348,17.6689977 C136.295091,18.0025898 136.215834,18.3302253 136.136577,18.6519037 C136.05732,18.973582 135.995046,19.2416472 135.949757,19.4560995 L135.949757,19.4560995 Z" id="y"></path>
                        </g>
                    </g>
                    <path d="M25.000005,0 C23.9015584,0 22.8056222,0.334685683 21.8742754,0.989729599 L19.2363764,2.83027938 C18.3236992,3.47191365 17.2234672,3.82353783 16.092579,3.82000898 L12.8403748,3.8026453 C10.5321736,3.79457744 8.48724769,5.23290611 7.78139044,7.34483544 L6.78766138,10.3140242 C6.4416997,11.3486655 5.75355873,12.2480612 4.83633885,12.8838485 L2.19843988,14.7243982 C0.326458766,16.0222862 -0.455398358,18.3295549 0.265185158,20.437048 L1.27698202,23.4062368 C1.63005796,24.4385588 1.63005796,25.5687309 1.27698202,26.6011534 L0.265185158,29.5703422 C-0.455407782,31.6777348 0.326651817,33.9853052 2.19843988,35.282992 L4.83633885,37.1235418 C5.75345697,37.7594297 6.4418824,38.6588259 6.78766138,39.693366 L7.78139044,42.6625548 C8.4873402,44.7744841 10.5321736,46.2123066 12.8403748,46.204745 L16.092579,46.1873813 C17.2234672,46.1833251 18.3235974,46.5353755 19.2363764,47.1771109 L21.8742754,49.0176607 C23.737079,50.3274464 26.262931,50.3274464 28.1257346,49.0176607 L30.7636335,47.1771109 C31.676309,46.5353755 32.7765421,46.1837513 33.9074309,46.1873813 L37.1596351,46.204745 C39.4678358,46.2128128 41.5126703,44.7744841 42.2186195,42.6625548 L43.2123485,39.693366 C43.5581986,38.6588259 44.2465634,37.7594297 45.1636711,37.1235418 L47.80157,35.282992 C49.6734492,33.9853052 50.4554184,31.6777348 49.7348248,29.5703422 L48.7230279,26.6011534 C48.3699617,25.5688314 48.3699617,24.43876 48.7230279,23.4062368 L49.7348248,20.437048 C50.4554288,18.3295549 49.6733572,16.0222867 47.80157,14.7243982 L45.1636711,12.8838485 C44.2465634,12.2479606 43.5580969,11.3486655 43.2123485,10.3140242 L42.2186195,7.34483544 C41.5126703,5.23290611 39.4678358,3.79518475 37.1596351,3.8026453 L33.9074309,3.82000898 C32.7765421,3.82406513 31.6764108,3.47191365 30.7636335,2.83027938 L28.1257346,0.989729599 C27.1943784,0.334685683 26.0984533,0 25.000005,0 L25.000005,0 Z M25,7.29166667 C34.7642504,7.29166667 42.7083333,15.2356571 42.7083333,25 C42.7083333,34.7643429 34.7642504,42.7083333 25,42.7083333 C15.2357508,42.7083333 7.29166667,34.7643429 7.29166667,25 C7.29166667,15.2356571 15.2357508,7.29166667 25,7.29166667 L25,7.29166667 Z M10.4166667,25 C10.4166667,16.9426121 16.9423782,10.4166667 25,10.4166667 C33.0577131,10.4166667 39.5833333,16.9426121 39.5833333,25 C39.5833333,33.0574918 33.0577131,39.5833333 25,39.5833333 C16.9423782,39.5833333 10.4166667,33.0574918 10.4166667,25 Z M27.5577673,18.9756471 L27.5577673,20.7637943 C27.7248051,20.8489441 27.9475224,20.9199023 28.2259187,20.9766689 C28.504315,21.0334356 28.747912,21.0618188 28.9567094,21.0618188 C28.9984688,20.8489441 29.0402283,20.6076863 29.0819878,20.338045 C29.1237472,20.0684036 29.1550668,19.7916666 29.1759465,19.5078338 C29.1968263,19.224001 29.214226,18.9437159 29.2281459,18.6669789 C29.2420658,18.3902418 29.2490256,18.1383403 29.2490256,17.9112738 C28.678313,17.6842074 28.0449609,17.506812 27.3489699,17.3790872 C26.6529789,17.2513624 25.9987471,17.1875 25.3862751,17.1875 C24.6763641,17.1875 24.0395323,17.2797456 23.4757795,17.4642371 C22.9120267,17.6487285 22.4317929,17.9077258 22.035078,18.2412296 C21.638363,18.5747333 21.3356069,18.9756471 21.1268096,19.4439714 C20.9180122,19.9122956 20.8136136,20.4302905 20.8136136,20.9979564 C20.8136136,21.8778382 20.9841315,22.5909683 21.325167,23.1373467 C21.6662026,23.6837251 22.0942371,24.1343096 22.6092706,24.4891008 C23.1243041,24.843892 23.6810968,25.1419165 24.2796492,25.3831744 C24.8782017,25.6244322 25.4349943,25.8869779 25.9500278,26.1708106 C26.4650614,26.4546434 26.8930959,26.7916952 27.2341314,27.1819653 C27.5751669,27.5722354 27.7456849,28.0937783 27.7456849,28.746594 C27.7456849,29.5980926 27.5020879,30.2615521 27.0148942,30.7369721 C26.5277006,31.212392 25.78299,31.4501022 24.7807628,31.4501022 C24.3214087,31.4501022 23.8516147,31.3968835 23.3713808,31.2904462 C22.891147,31.1840089 22.4631125,31.0243529 22.0872773,30.8114782 L22.0872773,28.6401567 C21.9898384,28.6117735 21.8715202,28.58339 21.7323218,28.5550068 C21.5931235,28.5266236 21.4504454,28.5017881 21.3042873,28.4805007 C21.1581292,28.4592132 21.0189309,28.4450215 20.8866927,28.4379257 C20.7544544,28.43083 20.6396159,28.427282 20.5421771,28.427282 C20.5004176,28.6685399 20.4656179,28.9417292 20.4377784,29.2468495 C20.4099389,29.5519697 20.3855791,29.864186 20.3646993,30.183498 C20.3438196,30.5028099 20.3298997,30.8185739 20.3229399,31.1307902 C20.3159801,31.4430065 20.3125,31.733935 20.3125,32.0035763 C20.8832126,32.2448341 21.5339644,32.4399693 22.264755,32.5889816 C22.9955457,32.7379939 23.7298164,32.8125 24.4675668,32.8125 C25.1496382,32.8125 25.8038697,32.7379939 26.4302617,32.5889816 C27.0566537,32.4399693 27.6099666,32.1916155 28.0902004,31.8439203 C28.5704343,31.4962251 28.9567094,31.0420923 29.2490256,30.4815225 C29.5413419,29.9209527 29.6875,29.222014 29.6875,28.3847071 C29.6875,27.5332084 29.5169821,26.8378178 29.1759465,26.2985354 C28.834911,25.7592531 28.4103562,25.3051202 27.9022829,24.9361376 C27.3942095,24.567155 26.8408965,24.2549387 26.2423441,23.9994891 C25.6437917,23.7440395 25.0904787,23.4743982 24.5824053,23.1905654 C24.074332,22.9067326 23.6497772,22.5732289 23.3087416,22.1900545 C22.9677061,21.8068801 22.7971882,21.3030766 22.7971882,20.6786444 C22.7971882,20.0684036 23.0442649,19.5539567 23.5384187,19.1353031 C24.0325725,18.7166495 24.7181236,18.5073229 25.5950724,18.5073229 C25.9569876,18.5073229 26.3119431,18.5463498 26.6599388,18.624404 C27.0079344,18.7024581 27.3072105,18.8195392 27.5577673,18.9756471 Z" id="Shape" fill="#2973BA"></path>
                </g>
            </g>
        </g>
    </g>
</svg>